<svg xmlns="http://www.w3.org/2000/svg" xmlns:xlink="http://www.w3.org/1999/xlink" width="500" zoomAndPan="magnify" viewBox="0 0 375 112.499997" height="150" preserveAspectRatio="xMidYMid meet" version="1.0"><defs><g/><clipPath id="4a07694d3b"><path d="M 17.257812 2 L 110.59375 2 L 110.59375 110.269531 L 17.257812 110.269531 Z M 17.257812 2 " clip-rule="nonzero"/></clipPath><clipPath id="0cccb3ec04"><path d="M 28.878906 49.5 L 28.878906 35.820312 L 63.925781 15.511719 L 98.96875 35.820312 L 98.96875 49.292969 L 110.59375 42.558594 L 110.59375 29.085938 L 87.257812 15.5625 L 63.925781 2.039062 L 40.589844 15.5625 L 17.257812 29.085938 L 17.257812 56.234375 L 28.878906 62.972656 L 40.5 69.707031 L 63.925781 83.285156 L 69.734375 79.917969 L 75.425781 76.621094 L 87.347656 69.707031 L 87.347656 56.234375 L 75.722656 62.972656 L 63.925781 69.8125 L 52.125 62.972656 L 40.5 56.234375 Z M 98.96875 62.765625 L 98.96875 76.445312 L 63.925781 96.757812 L 28.878906 76.445312 L 28.878906 62.972656 L 17.257812 69.710938 L 17.257812 83.183594 L 40.589844 96.707031 L 63.925781 110.230469 L 87.257812 96.707031 L 110.59375 83.183594 L 110.59375 56.03125 L 98.96875 49.296875 L 87.347656 42.558594 L 63.925781 28.984375 L 58.113281 32.351562 L 52.425781 35.648438 L 40.5 42.558594 L 40.5 56.03125 L 52.125 49.296875 L 63.925781 42.457031 L 75.722656 49.296875 L 87.347656 56.03125 Z M 98.96875 62.765625 " clip-rule="evenodd"/></clipPath><linearGradient x1="70.994003" gradientTransform="matrix(0.65735, 0, 0, 0.659889, 17.256642, 2.038509)" y1="163.952711" x2="70.994003" gradientUnits="userSpaceOnUse" y2="-0.00000703288" id="af9caf92b1"><stop stop-opacity="1" stop-color="rgb(99.998474%, 99.998474%, 99.998474%)" offset="0"/><stop stop-opacity="1" stop-color="rgb(99.882507%, 99.882507%, 99.882507%)" offset="0.015625"/><stop stop-opacity="1" stop-color="rgb(99.649048%, 99.649048%, 99.649048%)" offset="0.03125"/><stop stop-opacity="1" stop-color="rgb(99.417114%, 99.417114%, 99.417114%)" offset="0.046875"/><stop stop-opacity="1" stop-color="rgb(99.183655%, 99.183655%, 99.183655%)" offset="0.0625"/><stop stop-opacity="1" stop-color="rgb(98.951721%, 98.951721%, 98.951721%)" offset="0.078125"/><stop stop-opacity="1" stop-color="rgb(98.718262%, 98.718262%, 98.718262%)" offset="0.09375"/><stop stop-opacity="1" stop-color="rgb(98.484802%, 98.484802%, 98.484802%)" offset="0.109375"/><stop stop-opacity="1" stop-color="rgb(98.252869%, 98.252869%, 98.252869%)" offset="0.125"/><stop stop-opacity="1" stop-color="rgb(98.019409%, 98.019409%, 98.019409%)" offset="0.140625"/><stop stop-opacity="1" stop-color="rgb(97.787476%, 97.787476%, 97.787476%)" offset="0.15625"/><stop stop-opacity="1" stop-color="rgb(97.554016%, 97.554016%, 97.554016%)" offset="0.171875"/><stop stop-opacity="1" stop-color="rgb(97.322083%, 97.322083%, 97.322083%)" offset="0.1875"/><stop stop-opacity="1" stop-color="rgb(97.088623%, 97.088623%, 97.088623%)" offset="0.203125"/><stop stop-opacity="1" stop-color="rgb(96.855164%, 96.855164%, 96.855164%)" offset="0.21875"/><stop stop-opacity="1" stop-color="rgb(96.62323%, 96.62323%, 96.62323%)" offset="0.234375"/><stop stop-opacity="1" stop-color="rgb(96.389771%, 96.389771%, 96.389771%)" offset="0.25"/><stop stop-opacity="1" stop-color="rgb(96.157837%, 96.157837%, 96.157837%)" offset="0.265625"/><stop stop-opacity="1" stop-color="rgb(95.924377%, 95.924377%, 95.924377%)" offset="0.28125"/><stop stop-opacity="1" stop-color="rgb(95.692444%, 95.692444%, 95.692444%)" offset="0.296875"/><stop stop-opacity="1" stop-color="rgb(95.458984%, 95.458984%, 95.458984%)" offset="0.3125"/><stop stop-opacity="1" stop-color="rgb(95.225525%, 95.225525%, 95.225525%)" offset="0.328125"/><stop stop-opacity="1" stop-color="rgb(94.993591%, 94.993591%, 94.993591%)" offset="0.34375"/><stop stop-opacity="1" stop-color="rgb(94.760132%, 94.760132%, 94.760132%)" offset="0.359375"/><stop stop-opacity="1" stop-color="rgb(94.528198%, 94.528198%, 94.528198%)" offset="0.375"/><stop stop-opacity="1" stop-color="rgb(94.294739%, 94.294739%, 94.294739%)" offset="0.390625"/><stop stop-opacity="1" stop-color="rgb(94.062805%, 94.062805%, 94.062805%)" offset="0.40625"/><stop stop-opacity="1" stop-color="rgb(93.829346%, 93.829346%, 93.829346%)" offset="0.421875"/><stop stop-opacity="1" stop-color="rgb(93.595886%, 93.595886%, 93.595886%)" offset="0.4375"/><stop stop-opacity="1" stop-color="rgb(93.363953%, 93.363953%, 93.363953%)" offset="0.453125"/><stop stop-opacity="1" stop-color="rgb(93.130493%, 93.130493%, 93.130493%)" offset="0.46875"/><stop stop-opacity="1" stop-color="rgb(92.89856%, 92.89856%, 92.89856%)" offset="0.484375"/><stop stop-opacity="1" stop-color="rgb(92.6651%, 92.6651%, 92.6651%)" offset="0.5"/><stop stop-opacity="1" stop-color="rgb(92.431641%, 92.431641%, 92.431641%)" offset="0.515625"/><stop stop-opacity="1" stop-color="rgb(92.199707%, 92.199707%, 92.199707%)" offset="0.53125"/><stop stop-opacity="1" stop-color="rgb(91.966248%, 91.966248%, 91.966248%)" offset="0.546875"/><stop stop-opacity="1" stop-color="rgb(91.734314%, 91.734314%, 91.734314%)" offset="0.5625"/><stop stop-opacity="1" stop-color="rgb(91.500854%, 91.500854%, 91.500854%)" offset="0.578125"/><stop stop-opacity="1" stop-color="rgb(91.268921%, 91.268921%, 91.268921%)" offset="0.59375"/><stop stop-opacity="1" stop-color="rgb(91.035461%, 91.035461%, 91.035461%)" offset="0.609375"/><stop stop-opacity="1" stop-color="rgb(90.802002%, 90.802002%, 90.802002%)" offset="0.625"/><stop stop-opacity="1" stop-color="rgb(90.570068%, 90.570068%, 90.570068%)" offset="0.640625"/><stop stop-opacity="1" stop-color="rgb(90.336609%, 90.336609%, 90.336609%)" offset="0.65625"/><stop stop-opacity="1" stop-color="rgb(90.104675%, 90.104675%, 90.104675%)" offset="0.671875"/><stop stop-opacity="1" stop-color="rgb(89.871216%, 89.871216%, 89.871216%)" offset="0.6875"/><stop stop-opacity="1" stop-color="rgb(89.639282%, 89.639282%, 89.639282%)" offset="0.703125"/><stop stop-opacity="1" stop-color="rgb(89.405823%, 89.405823%, 89.405823%)" offset="0.71875"/><stop stop-opacity="1" stop-color="rgb(89.172363%, 89.172363%, 89.172363%)" offset="0.734375"/><stop stop-opacity="1" stop-color="rgb(88.94043%, 88.94043%, 88.94043%)" offset="0.75"/><stop stop-opacity="1" stop-color="rgb(88.70697%, 88.70697%, 88.70697%)" offset="0.765625"/><stop stop-opacity="1" stop-color="rgb(88.475037%, 88.475037%, 88.475037%)" offset="0.78125"/><stop stop-opacity="1" stop-color="rgb(88.241577%, 88.241577%, 88.241577%)" offset="0.796875"/><stop stop-opacity="1" stop-color="rgb(88.009644%, 88.009644%, 88.009644%)" offset="0.8125"/><stop stop-opacity="1" stop-color="rgb(87.776184%, 87.776184%, 87.776184%)" offset="0.828125"/><stop stop-opacity="1" stop-color="rgb(87.542725%, 87.542725%, 87.542725%)" offset="0.84375"/><stop stop-opacity="1" stop-color="rgb(87.310791%, 87.310791%, 87.310791%)" offset="0.859375"/><stop stop-opacity="1" stop-color="rgb(87.077332%, 87.077332%, 87.077332%)" offset="0.875"/><stop stop-opacity="1" stop-color="rgb(86.845398%, 86.845398%, 86.845398%)" offset="0.890625"/><stop stop-opacity="1" stop-color="rgb(86.611938%, 86.611938%, 86.611938%)" offset="0.90625"/><stop stop-opacity="1" stop-color="rgb(86.380005%, 86.380005%, 86.380005%)" offset="0.921875"/><stop stop-opacity="1" stop-color="rgb(86.146545%, 86.146545%, 86.146545%)" offset="0.9375"/><stop stop-opacity="1" stop-color="rgb(85.913086%, 85.913086%, 85.913086%)" offset="0.953125"/><stop stop-opacity="1" stop-color="rgb(85.681152%, 85.681152%, 85.681152%)" offset="0.96875"/><stop stop-opacity="1" stop-color="rgb(85.447693%, 85.447693%, 85.447693%)" offset="0.984375"/><stop stop-opacity="1" stop-color="rgb(85.215759%, 85.215759%, 85.215759%)" offset="1"/></linearGradient></defs><g clip-path="url(#4a07694d3b)"><g clip-path="url(#0cccb3ec04)"><path fill="url(#af9caf92b1)" d="M 17.257812 2.039062 L 17.257812 110.230469 L 110.59375 110.230469 L 110.59375 2.039062 Z M 17.257812 2.039062 " fill-rule="nonzero"/></g></g><g fill="#ffffff" fill-opacity="1"><g transform="translate(120.719182, 67.201323)"><g><path d="M 24.222656 -23.070312 L 5.765625 -23.070312 C 3.230469 -23.070312 1.152344 -20.992188 1.152344 -18.457031 L 1.152344 -13.839844 C 1.152344 -11.304688 3.230469 -9.226562 5.765625 -9.226562 L 19.609375 -9.226562 L 19.609375 -4.613281 L 1.152344 -4.613281 L 1.152344 0 L 19.609375 0 C 22.148438 0 24.222656 -2.078125 24.222656 -4.613281 L 24.222656 -9.226562 C 24.222656 -11.765625 22.148438 -13.839844 19.609375 -13.839844 L 5.765625 -13.839844 L 5.765625 -18.457031 L 24.222656 -18.457031 Z M 24.222656 -23.070312 "/></g></g></g><g fill="#ffffff" fill-opacity="1"><g transform="translate(151.019729, 67.201323)"><g><path d="M 5.765625 -23.070312 C 3.230469 -23.070312 1.152344 -20.992188 1.152344 -18.457031 L 1.152344 0 L 5.765625 0 L 5.765625 -18.457031 L 10.382812 -18.457031 L 10.382812 0 L 14.996094 0 L 14.996094 -18.457031 L 19.609375 -18.457031 L 19.609375 0 L 24.222656 0 L 24.222656 -18.457031 C 24.222656 -20.992188 22.148438 -23.070312 19.609375 -23.070312 Z M 5.765625 -23.070312 "/></g></g></g><g fill="#ffffff" fill-opacity="1"><g transform="translate(181.320277, 67.201323)"><g><path d="M 5.765625 -23.070312 C 3.230469 -23.070312 1.152344 -20.992188 1.152344 -18.457031 L 1.152344 0 L 5.765625 0 L 5.765625 -9.226562 L 19.609375 -9.226562 L 19.609375 0 L 24.222656 0 L 24.222656 -18.457031 C 24.222656 -20.992188 22.148438 -23.070312 19.609375 -23.070312 Z M 5.765625 -18.457031 L 19.609375 -18.457031 L 19.609375 -13.839844 L 5.765625 -13.839844 Z M 5.765625 -18.457031 "/></g></g></g><g fill="#ffffff" fill-opacity="1"><g transform="translate(211.620825, 67.201323)"><g><path d="M 24.222656 -18.457031 C 24.222656 -20.992188 22.148438 -23.070312 19.609375 -23.070312 L 1.152344 -23.070312 L 1.152344 0 L 5.765625 0 L 5.765625 -9.226562 L 8.476562 -9.226562 L 17.015625 -0.691406 C 17.476562 -0.230469 18.050781 0 18.6875 0 L 24.222656 0 L 24.222656 -4.613281 L 19.609375 -4.613281 L 14.996094 -9.226562 L 19.609375 -9.226562 C 22.148438 -9.226562 24.222656 -11.304688 24.222656 -13.839844 Z M 19.609375 -18.457031 L 19.609375 -13.839844 L 5.765625 -13.839844 L 5.765625 -18.457031 Z M 19.609375 -18.457031 "/></g></g></g><g fill="#ffffff" fill-opacity="1"><g transform="translate(241.921372, 67.201323)"><g><path d="M 24.222656 -23.070312 L 1.152344 -23.070312 L 1.152344 -18.457031 L 10.382812 -18.457031 L 10.382812 0 L 14.996094 0 L 14.996094 -18.457031 L 24.222656 -18.457031 Z M 24.222656 -23.070312 "/></g></g></g><g fill="#ffffff" fill-opacity="1"><g transform="translate(272.22192, 67.201323)"><g><path d="M 24.222656 -23.070312 L 5.765625 -23.070312 C 3.230469 -23.070312 1.152344 -20.992188 1.152344 -18.457031 L 1.152344 -13.839844 C 1.152344 -11.304688 3.230469 -9.226562 5.765625 -9.226562 L 19.609375 -9.226562 L 19.609375 -4.613281 L 1.152344 -4.613281 L 1.152344 0 L 19.609375 0 C 22.148438 0 24.222656 -2.078125 24.222656 -4.613281 L 24.222656 -9.226562 C 24.222656 -11.765625 22.148438 -13.839844 19.609375 -13.839844 L 5.765625 -13.839844 L 5.765625 -18.457031 L 24.222656 -18.457031 Z M 24.222656 -23.070312 "/></g></g></g><g fill="#ffffff" fill-opacity="1"><g transform="translate(302.522468, 67.201323)"><g><path d="M 19.609375 -13.839844 L 5.765625 -13.839844 L 5.765625 -23.070312 L 1.152344 -23.070312 L 1.152344 -13.839844 C 1.152344 -11.304688 3.230469 -9.226562 5.765625 -9.226562 L 19.609375 -9.226562 L 19.609375 -4.613281 L 1.152344 -4.613281 L 1.152344 0 L 19.609375 0 C 22.148438 0 24.222656 -2.078125 24.222656 -4.613281 L 24.222656 -23.070312 L 19.609375 -23.070312 Z M 19.609375 -13.839844 "/></g></g></g><g fill="#ffffff" fill-opacity="1"><g transform="translate(332.823016, 67.201323)"><g><path d="M 24.222656 -23.070312 L 5.765625 -23.070312 C 3.230469 -23.070312 1.152344 -20.992188 1.152344 -18.457031 L 1.152344 -13.839844 C 1.152344 -11.304688 3.230469 -9.226562 5.765625 -9.226562 L 19.609375 -9.226562 L 19.609375 -4.613281 L 1.152344 -4.613281 L 1.152344 0 L 19.609375 0 C 22.148438 0 24.222656 -2.078125 24.222656 -4.613281 L 24.222656 -9.226562 C 24.222656 -11.765625 22.148438 -13.839844 19.609375 -13.839844 L 5.765625 -13.839844 L 5.765625 -18.457031 L 24.222656 -18.457031 Z M 24.222656 -23.070312 "/></g></g></g></svg>